<svg width="29" height="29" viewBox="0 0 29 29" fill="none" xmlns="http://www.w3.org/2000/svg">
<path d="M2.93945 3.53491C3.18212 4.94425 4.42229 11.7016 8.77279 11.7016C9.97912 11.7016 11.0985 11.3422 11.7624 10.8266C11.8487 10.9374 13.1037 12.2458 13.1842 12.5037C13.3931 13.171 13.4395 14.2659 13.4395 15.2016V16.3682C14.1406 16.3682 14.7613 16.4992 15.1895 16.988C15.3551 16.799 15.7728 16.6964 15.7728 16.6964V15.2016V14.0349C15.7728 12.9499 16.6758 12.1026 17.8145 11.5193C18.3056 12.2228 19.3416 12.8682 20.4395 12.8682C23.8228 12.8682 26.2728 6.93808 26.2728 5.86825H20.4395C18.3791 5.86825 16.9395 7.21225 16.9395 9.36825C16.1916 9.63658 15.4823 10.1572 14.8978 10.7172C14.5373 9.99737 14.0155 9.3767 13.403 8.82137C13.1942 5.64454 11.2741 3.53491 8.77279 3.53491H2.93945ZM13.4395 17.5349C12.33 17.5349 11.4147 18.3207 11.179 19.3578C10.6797 18.9588 10.0445 18.7016 9.35612 18.7016C8.18712 18.7016 7.19662 19.387 6.73112 20.3787C6.33212 20.0602 5.82345 19.8682 5.27279 19.8682C3.98362 19.8682 2.93945 20.9124 2.93945 22.2016V24.5349H26.2728V23.3682C26.2728 22.0791 25.2286 21.0349 23.9395 21.0349C23.9196 21.0349 23.8864 21.0349 23.8665 21.0349C23.5982 19.7014 22.4356 18.7016 21.0228 18.7016C20.3345 18.7016 19.6992 18.9588 19.1999 19.3578C18.9642 18.3207 18.049 17.5349 16.9395 17.5349C16.2383 17.5349 15.6176 17.847 15.1895 18.337C14.7613 17.847 14.1406 17.5349 13.4395 17.5349Z" fill="#044C40"/>
</svg>
