<svg width="34" height="34" viewBox="0 0 34 34" fill="none" xmlns="http://www.w3.org/2000/svg">
<g clip-path="url(#clip0_90_1365)">
<path d="M30.0806 16.0721L30.0777 16.0483C28.4337 16.7955 26.9606 16.2253 25.3574 15.9095C24.1931 15.6807 22.9608 15.5845 21.5428 16.229C20.9056 16.5186 20.3678 16.7703 19.9154 16.9925L16.5716 18.5123C16.0827 18.7345 15.8704 19.3217 16.0982 19.8229C16.3261 20.3242 16.9076 20.5505 17.3969 20.3282L20.536 18.9014C21.2178 18.7192 21.9565 19.061 22.2653 19.7404C22.4994 20.2554 22.4211 20.8259 22.1158 21.2447C22.0282 21.3178 21.6082 21.6661 21.0457 22.132C20.6788 22.4218 20.3356 22.708 20.0173 22.9842L19.948 23.0408C18.7392 24.0413 17.4369 25.1167 17.1972 25.3036C17.0231 25.3946 16.8572 25.4606 16.6964 25.4895L10.2587 24.4505L9.06086 24.1936L9.06182 24.1957C9.00585 24.1858 8.94907 24.1805 8.8917 24.1785C8.81027 24.1738 8.72835 24.1745 8.64583 24.1847C8.58136 24.1936 8.51726 24.2078 8.45256 24.2253C8.3851 24.2441 8.31753 24.2671 8.25181 24.297C8.16338 24.3372 8.08153 24.3855 8.00662 24.4408C7.30514 24.8375 7.0125 25.72 7.3604 26.4854C7.54461 26.8907 7.87304 27.1785 8.25396 27.3233L8.25322 27.3254L8.26285 27.3274C8.41305 27.3838 8.5711 27.4201 8.73227 27.4294L9.18818 27.5282L19.5575 29.7658L19.5571 29.765C19.5947 29.7629 19.6322 29.7612 19.6701 29.7597C19.8728 29.7416 20.0746 29.6988 20.2701 29.61C20.3839 29.5582 20.4895 29.4954 20.5867 29.4252L20.6208 29.397C22.9354 27.5184 27.7189 23.6381 29.9667 21.8427C30.0188 21.79 30.0673 21.7407 30.1187 21.6893C30.6908 21.228 31.4837 20.6288 32.038 20.3769L31.8652 19.9966L31.8714 19.9929L31.6275 19.4735L30.0818 16.0728L30.0806 16.0721Z" fill="#04493E"/>
<path d="M11.6685 17.3233C11.5607 17.2808 11.4592 17.2291 11.3551 17.1819L9.74779 21.6352L10.4242 21.8985L12.0328 17.4416C11.9789 17.4244 11.9249 17.4124 11.8719 17.3935C11.8108 17.3715 11.7482 17.3552 11.6872 17.3306L11.6685 17.3233Z" fill="#04493E"/>
<path d="M8.14637 9.17393C8.08449 9.15013 8.02306 9.13464 7.96164 9.11276L7.95675 9.12392C6.81763 12.28 8.33718 15.8032 11.3556 17.182C11.46 17.229 11.5612 17.2809 11.669 17.3234L11.6876 17.3307C11.7485 17.3549 11.8116 17.3714 11.8723 17.3936C11.9255 17.4128 11.9794 17.4245 12.0333 17.4417C15.1796 18.4627 18.5545 16.8488 19.6933 13.6929L19.6998 13.6733L19.6801 13.664C16.8044 12.5442 13.6607 13.7058 12.1632 16.268C12.6567 13.3156 11.0235 10.2939 8.14637 9.17393Z" fill="#034B3F"/>
<path d="M12.2856 12.9319C12.4025 13.392 12.5559 13.8517 12.76 14.3008L12.7729 14.3238L12.7963 14.314C12.8696 14.2807 12.9383 14.2393 13.0103 14.204C16.756 12.3564 18.3538 7.78447 16.5696 3.85889L16.5592 3.83596L16.5345 3.8455C13.0706 5.41984 11.3558 9.28488 12.2859 12.9317L12.2856 12.9319Z" fill="#034B3F"/>
</g>
<defs>
<clipPath id="clip0_90_1365">
<rect width="25" height="25" fill="white" transform="translate(0.402344 11.1777) rotate(-24.4422)"/>
</clipPath>
</defs>
</svg>
